<svg xmlns="http://www.w3.org/2000/svg" xmlns:xlink="http://www.w3.org/1999/xlink" fill="none" version="1.1" width="117" height="17.4375" viewBox="0 0 117 17.4375" class="mt-[1px] h-[16px] lg:mt-[2px] lg:h-[20px] w-auto transition-all duration-300 ease-in-out text-white"><g><path d="M3.79688,17.2031L5.08594,13.2891L11.2266,13.2891L12.4922,17.2031L16.2656,17.2031L10.4062,0.234375L5.88281,0.234375L0,17.2031L3.79688,17.2031ZM5.97656,10.5469L8.08594,4.05469L8.20312,4.05469L10.3359,10.5469L5.97656,10.5469ZM17.9475,17.2031L28.7756,17.2031L28.7756,14.2969L21.4631,14.2969L21.4631,0.234375L17.9475,0.234375L17.9475,17.2031ZM30.1528,3.14062L35.3559,3.14062L35.3559,17.2031L38.8481,17.2031L38.8481,3.14062L44.0513,3.14062L44.0513,0.234375L30.1528,0.234375L30.1528,3.14062ZM45.9909,17.2031L49.5066,17.2031L49.5066,11.1797L52.2019,11.1797L55.4362,17.2031L59.3269,17.2031L55.7175,10.5938C57.6511,9.77344,58.7175,8.08594,58.7175,5.76562C58.7175,2.41406,56.5144,0.234375,52.6472,0.234375L45.9909,0.234375L45.9909,17.2031ZM49.5066,8.32031L49.5066,3.11719L51.9909,3.11719C54.0769,3.11719,55.0847,4.05469,55.0847,5.76562C55.0847,7.45312,54.0769,8.32031,51.9909,8.32031L49.5066,8.32031ZM76.4541,8.71875C76.4541,3.1875,73.0087,0,68.5322,0C64.0087,0,60.5869,3.1875,60.5869,8.71875C60.5869,14.2266,64.0087,17.4375,68.5322,17.4375C73.0087,17.4375,76.4541,14.25,76.4541,8.71875ZM72.8681,8.71875C72.8681,12.3516,71.1572,14.3203,68.5322,14.3203C65.9072,14.3203,64.1728,12.3516,64.1728,8.71875C64.1728,5.08594,65.9072,3.11719,68.5322,3.11719C71.1572,3.11719,72.8681,5.08594,72.8681,8.71875ZM94.2844,8.71875C94.2844,3.1875,90.8391,0,86.3625,0C81.8391,0,78.4172,3.1875,78.4172,8.71875C78.4172,14.2266,81.8391,17.4375,86.3625,17.4375C90.8391,17.4375,94.2844,14.25,94.2844,8.71875ZM90.6984,8.71875C90.6984,12.3516,88.9875,14.3203,86.3625,14.3203C83.7375,14.3203,82.0031,12.3516,82.0031,8.71875C82.0031,5.08594,83.7375,3.11719,86.3625,3.11719C88.9875,3.11719,90.6984,5.08594,90.6984,8.71875ZM96.5756,0.234375L96.5756,17.2031L99.9975,17.2031L99.9975,6.04688L100.138,6.04688L104.568,17.1328L106.912,17.1328L111.341,6.09375L111.482,6.09375L111.482,17.2031L114.904,17.2031L114.904,0.234375L110.544,0.234375L105.833,11.7422L105.646,11.7422L100.935,0.234375L96.5756,0.234375Z" fill="currentColor"></path></g></svg>