<svg xmlns="http://www.w3.org/2000/svg" version="1.1" xmlns:xlink="http://www.w3.org/1999/xlink" width="24" height="24"><svg width="24" height="24" viewBox="0 0 372.3 372.27" fill="currentColor" xmlns="http://www.w3.org/2000/svg" class="h-6 w-auto"><path d="M186.15,0h-93.64c-25.55,0-48.67,10.35-65.41,27.1C10.35,43.84,0,66.96,0,92.51v93.64h93.64c25.55,0,48.67-10.35,65.41-27.1,16.74-16.74,27.1-39.87,27.1-65.41V0Z"></path><path d="M279.22,0h0c-25.7,0-48.97,10.42-65.81,27.26-16.84,16.84-27.26,40.11-27.26,65.81h0c0,25.7,10.42,48.97,27.26,65.81,16.84,16.84,40.11,27.26,65.81,27.26h0c25.7,0,48.97-10.42,65.81-27.26,16.84-16.84,27.26-40.11,27.26-65.81h0c0-25.7-10.42-48.97-27.26-65.81C328.19,10.42,304.92,0,279.22,0Z"></path><path d="M93.07,186.13h0c-25.7,0-48.97,10.42-65.81,27.26C10.42,230.23,0,253.5,0,279.2h0c0,25.7,10.42,48.97,27.26,65.81,16.84,16.84,40.11,27.26,65.81,27.26h93.07v-93.07c0-25.7-10.42-48.97-27.26-65.81-16.84-16.84-40.11-27.26-65.81-27.26Z"></path><path d="M372.3,186.13h-93.07c-25.7,0-48.97,10.42-65.81,27.26-16.84,16.84-27.26,40.11-27.26,65.81h0c0,25.7,10.42,48.97,27.26,65.81,16.84,16.84,40.11,27.26,65.81,27.26h93.07v-186.15Z"></path></svg><style>@media (prefers-color-scheme: light) { :root { filter: none; } }
@media (prefers-color-scheme: dark) { :root { filter: none; } }
</style></svg>